<?xml version="1.0"?><svg version="1.2" baseProfile="tiny-ps" viewBox="0 0 300 300" xmlns="http://www.w3.org/2000/svg" xmlns:xlink="http://www.w3.org/1999/xlink"><title>Loric Computer Services</title><g><g fill="#fdffff" transform="matrix(.1 0 0 -.1 0 300)"><path d="M0 1500V0h3000v3000H0V1500z"/></g><g fill="#c1ced7" transform="matrix(.1 0 0 -.1 0 300)"><path d="M310 2755v-85h80v90h2280v-800h80v880H310v-85zM30 1380V160l1218 2 1217 3 3 438 2 437h-90V240H110v2280h2270v-560l20-1c11-1 27-1 35-1s20 0 25 1l10 1v640H30V1380zm280 45V400h2010v80H390v1970h-80V1425zm1611 405c-24-5-63-19-87-30l-44-22-45-50-45-50-20-65-20-65v-106l20-64 20-65 40-46 41-46 56-27 56-28 83-4 83-4 53 17c28 9 70 29 93 45l41 28 27 41c15 22 27 45 27 51v11l-57 25-57 26-5-13c-2-6-19-29-38-50l-34-38-36-12-35-11-63 4-63 4-37 28-37 29-21 46-20 46-1 60v60l12 37 13 36 34 33c56 55 127 71 207 47l40-12 27-25c14-14 33-36 41-49l15-23 58 22c31 12 57 25 57 29 0 3-14 28-31 53-34 52-67 78-131 107l-44 19-64 5-65 5-44-9zm672 0c-71-15-119-46-152-100l-21-35v-106l14-27c20-38 55-68 101-88l40-17 95-12c52-7 107-18 123-24l27-11 11-24 12-25-7-25-6-26-31-15c-16-9-51-19-77-22l-47-5-45 12-44 12-40 39-39 40-55-19c-31-10-57-23-59-29l-4-10 45-50 45-50 53-23 53-23 86-5 86-4 59 17 58 17 37 37 37 36 12 42 13 41-8 49-7 48-42 41-43 40-59 16c-32 9-88 20-124 23-36 4-79 13-97 20l-32 14-7 25-6 25 7 20 6 21 29 15 29 15h55c67 0 102-12 142-51l31-30 56 22c31 12 57 26 57 31s-22 30-48 57l-48 48-49 16-49 17-66 5-65 4-42-9zm-1496-6-7-7v-647h501l-3 58-3 57-177 3-178 2-2 268-3 267-60 3-61 3-7-7zM2670 760V480h-140v-80h220v640h-80V760z"/></g><g fill="#94a7b4" transform="matrix(.1 0 0 -.1 0 300)"><path d="M310 2750v-80h80v90h2280v-800h70v870H310v-80zM30 1380V160h2430v880h-70V240H110v2280h2280v-560h70v640H30V1380zm285 1058c-3-7-4-467-3-1023l3-1010 998-3 997-2v80H390l-2 983-3 982-33 3-32 3-5-13zm1546-630-55-21-46-46-47-47-23-60-22-59v-160l21-57 22-56 40-42 41-42 53-24 53-25 64-6 63-5 57 11 58 12 47 32 47 32 34 44c18 24 31 48 29 54s-27 19-57 31l-54 20-4-14c-3-8-22-31-42-51l-37-36-47-13-46-13-42 7c-23 4-59 17-81 29l-39 22-25 42-25 43-5 57-5 58 11 41c6 23 21 56 34 75l23 34 39 22 40 23h116l40-20 39-21 28-38 28-38 49 19c28 11 52 21 54 23 2 3-2 18-9 35l-13 31-47 42-48 43-52 17-52 17-77-1h-76l-54-21zm695 7c-22-8-51-22-65-33l-26-18-22-44-23-44v-71l19-41 19-41 29-21 30-21 59-15c32-8 92-19 133-25l74-10 26-19 26-19 3-26 3-26-11-21-12-22-33-14-34-14h-115l-43 21-43 21-20 28-20 29-60-21-60-20 17-30c25-41 68-77 133-107l55-26h200l58 28 58 29 24 36c13 21 27 53 30 73l7 36-12 44-12 44-34 31-34 32-48 16c-27 9-89 21-138 26l-89 10-25 19-25 18-3 35-3 36 26 20 26 20 40 7 40 7 50-12 51-12 31-32 32-32 52 19 53 20v13c0 8-18 32-41 54l-41 39-54 21-55 20h-82l-82-1-39-14zm-1456-320v-325h490v110l-182 2-183 3-3 268-2 267h-120v-325zm1570-735V480h-130v-80h200v640h-70V760z"/></g><g fill="#7f7f7f" transform="matrix(.1 0 0 -.1 0 300)"><path d="M320 2750v-80h60v90h2290l2-397 3-398 33-3 32-3v871H320v-80zM30 1380V170h2430v870h-70V240H100v2280h2290v-560h70v630H30V1380zm290 45V410h1990v60l-962 2-963 3-3 983-2 982h-60V1425zm1575 391c-89-28-152-82-196-166l-24-45v-220l27-51 27-51 46-41 47-41 51-18 52-17h81l81 1 54 25c68 31 108 65 136 115l22 40-56 23-57 24-4-13c-2-6-16-26-30-43l-26-31-41-18-40-19h-100l-41 19-41 19-25 33c-47 64-61 156-37 244l11 40 42 41 41 41 52 11 51 11 54-13 53-14 43-47 42-47 50 18 50 18v11c0 22-60 95-99 120-21 15-60 33-87 41l-47 14-61-1h-61l-40-13zm663-1-48-16-35-34-34-35-11-42-12-41 7-36c4-20 15-50 25-66l19-31 39-22 39-22 74-11c41-6 98-16 127-21l54-10 19-19 19-19v-67l-26-24-26-24-77-3-78-4-41 21c-22 11-50 33-61 47l-22 27-54-17c-30-9-55-20-55-25 0-14 49-73 81-97 18-13 55-31 83-41l51-17h160l52 18 52 17 35 39c42 47 50 73 44 144l-4 52-20 27c-22 29-94 72-139 81-16 3-65 11-108 16l-77 10-29 14-29 15-6 25-6 25 11 23c15 34 43 49 104 55l52 6 37-13c21-7 53-26 72-42l34-30 50 18c27 10 50 21 50 26 0 4-14 23-32 43l-31 36-51 26-51 26-90 3-90 4-47-15zm-1456-317 3-323 238-3 237-2v110h-360v540h-120l2-322zm1575-465-7-6V470h-130v-60h200v630h-28c-16 0-32-3-35-7z"/></g><g fill="#4b7fa6" transform="matrix(.1 0 0 -.1 0 300)"><path d="M30 1380V170h2430v870h-70V240H100v2280h2290v-560h70v630H30V1380zm1865 436c-89-28-152-82-196-166l-24-45v-220l27-51 27-51 46-41 47-41 51-18 52-17h81l81 1 54 25c68 31 108 65 136 115l22 40-56 23-57 24-4-13c-2-6-16-26-30-43l-26-31-41-18-40-19h-100l-41 19-41 19-25 33c-47 64-61 156-37 244l11 40 42 41 41 41 52 11 51 11 54-13 53-14 43-47 42-47 50 18 50 18v11c0 22-60 95-99 120-21 15-60 33-87 41l-47 14-61-1h-61l-40-13zm663-1-48-16-35-34-34-35-11-42-12-41 7-36c4-20 15-50 25-66l19-31 39-22 39-22 74-11c41-6 98-16 127-21l54-10 19-19 19-19v-67l-26-24-26-24-77-3-78-4-41 21c-22 11-50 33-61 47l-22 27-54-17c-30-9-55-20-55-25 0-14 49-73 81-97 18-13 55-31 83-41l51-17h160l52 18 52 17 35 39c42 47 50 73 44 144l-4 52-20 27c-22 29-94 72-139 81-16 3-65 11-108 16l-77 10-29 14-29 15-6 25-6 25 11 23c15 34 43 49 104 55l52 6 37-13c21-7 53-26 72-42l34-30 50 18c27 10 50 21 50 26 0 4-14 23-32 43l-31 36-51 26-51 26-90 3-90 4-47-15zm-1456-317 3-323 238-3 237-2v110h-360v540h-120l2-322z"/></g><g fill="#216699" transform="matrix(.1 0 0 -.1 0 300)"><path d="M40 1380V170h2420v860h-70V235l-1137 2c-626 2-1141 3-1145 3h-8v2290h2290v-558l30-4c17-3 32-2 35 0 3 3 5 144 5 314v308H40V1380zm1862 435c-114-32-182-100-216-215l-16-54v-100l16-56 16-57 37-49 37-49 57-29 58-30 83-4 83-4 58 17 58 16 59 59 58 58v29l-49 21-49 20-26-38-25-38-43-21-44-21h-115l-32 14c-41 18-82 61-103 111l-17 40v135l25 47 24 48 43 30 43 30h133l39-19 39-20 26-37 26-38 19 6c11 3 34 12 53 19l33 14-14 28c-8 15-32 44-53 64l-38 37-48 21-48 21-67 5-67 4-53-15zm691 5c-72-15-123-51-152-107l-11-22v-108l23-34 22-34 48-24 48-24 99-12 99-13 28-14 28-13 13-28 13-28-9-27-9-27-30-18-31-18-49-5-48-6-43 12-44 11-42 39-42 39-52-16c-29-9-52-20-52-24 0-3 18-26 40-51l39-45 53-23 53-23 79-5 78-5 53 12 54 12 41 30 42 30 14 34 14 34v82l-14 33-14 33-33 25c-49 36-82 46-197 62l-103 14-24 16-25 16-6 27-7 27 14 25c8 14 26 31 39 38l25 13h114l28-11c15-5 42-23 58-39l31-30 46 18c26 10 50 21 54 24l6 7-44 44-44 44-50 17-49 17-65 4-65 4-42-9zm-1493-320v-320h480v100h-360v540h-120v-320z"/></g></g></svg>